<svg width="32" height="31" viewBox="0 0 32 31" fill="none" xmlns="http://www.w3.org/2000/svg">
<path d="M16 0.0833435C7.49001 0.0833435 0.583344 6.99001 0.583344 15.5C0.583344 24.01 7.49001 30.9167 16 30.9167C24.51 30.9167 31.4167 24.01 31.4167 15.5C31.4167 6.99001 24.51 0.0833435 16 0.0833435ZM14.4583 27.7254C8.36876 26.97 3.66668 21.79 3.66668 15.5C3.66668 14.5442 3.79001 13.6346 3.99043 12.7404L11.375 20.125V21.6667C11.375 23.3625 12.7625 24.75 14.4583 24.75V27.7254ZM25.0958 23.8096C24.695 22.5608 23.5542 21.6667 22.1667 21.6667H20.625V17.0417C20.625 16.1938 19.9313 15.5 19.0833 15.5H9.83334V12.4167H12.9167C13.7646 12.4167 14.4583 11.7229 14.4583 10.875V7.79168H17.5417C19.2375 7.79168 20.625 6.40418 20.625 4.70834V4.07626C25.1421 5.91084 28.3333 10.3354 28.3333 15.5C28.3333 18.7067 27.1 21.6204 25.0958 23.8096Z" fill="white"/>
</svg>
